<?xml version="1.0" encoding="utf-8"?>
<!-- Generator: Adobe Illustrator 16.0.0, SVG Export Plug-In . SVG Version: 6.00 Build 0)  -->
<svg version="1.2" baseProfile="tiny" id="Layer_1" xmlns="http://www.w3.org/2000/svg" xmlns:xlink="http://www.w3.org/1999/xlink"
	 x="0px" y="0px" width="75px" height="75px" viewBox="0 0 75 75" xml:space="preserve">
<g>
	<polygon fill="#C0D660" points="30.639,50.545 26.026,51.07 21.359,62.338 28.973,59.183 32.125,66.798 36.34,56.622 
		35.777,56.023 	"/>
	<polygon fill="#C0D660" points="43.832,50.545 38.695,56.022 38.133,56.622 42.348,66.798 45.5,59.183 53.113,62.338 48.446,51.07 
			"/>
	<polygon fill="#C0D660" points="47.571,48.958 51.453,49.399 51.985,40.842 59.018,36.095 54.009,29.191 56.391,20.965 
		48.184,18.946 44.801,11.091 37.236,14.899 29.672,11.091 26.289,18.946 18.082,20.965 20.464,29.191 15.455,36.095 22.487,40.842 
		23.02,49.399 26.901,48.958 31.41,48.444 37.18,54.594 37.236,54.457 37.293,54.594 43.061,48.444 	"/>
</g>
</svg>
