<?xml version="1.0" encoding="utf-8"?>
<!-- Generator: Adobe Illustrator 16.0.0, SVG Export Plug-In . SVG Version: 6.00 Build 0)  -->
<svg version="1.2" baseProfile="tiny" id="Layer_1" xmlns="http://www.w3.org/2000/svg" xmlns:xlink="http://www.w3.org/1999/xlink"
	 x="0px" y="0px" width="75px" height="75px" viewBox="0 0 75 75" xml:space="preserve">
<g>
	<path fill="#C0D660" d="M18.997,25.3h-4.084c-1.649,0-3,1.35-3,3v24c0,1.65,1.351,3,3,3h4.084V25.3z"/>
	<path fill="#C0D660" d="M47.913,25.3v-2c0-3.859-3.14-7-7-7h-8c-3.859,0-7,3.141-7,7v2h-5v30h32v-30H47.913z M29.913,23.3
		c0-1.654,1.346-3,3-3h8c1.654,0,3,1.346,3,3v2h-14V23.3z"/>
	<path fill="#C0D660" d="M58.913,25.3H54.83v30h4.083c1.65,0,3-1.35,3-3v-24C61.913,26.649,60.563,25.3,58.913,25.3z"/>
</g>
</svg>
