<?xml version="1.0" encoding="utf-8"?>
<!-- Generator: Adobe Illustrator 16.0.0, SVG Export Plug-In . SVG Version: 6.00 Build 0)  -->
<svg version="1.2" baseProfile="tiny" id="Layer_1" xmlns="http://www.w3.org/2000/svg" xmlns:xlink="http://www.w3.org/1999/xlink"
	 x="0px" y="0px" width="75px" height="75px" viewBox="0 0 75 75" xml:space="preserve">
<g>
	<path fill="#BDD261" d="M42.98,18.545c-1.762-1.441-4.355-1.176-5.79,0.593c-1.435,1.768-1.166,4.374,0.592,5.812
		c1.767,1.443,4.357,1.174,5.793-0.594C45.01,22.587,44.743,19.984,42.98,18.545z M41.933,23.018
		c-0.668,0.827-1.89,0.941-2.732,0.252c-0.838-0.683-0.973-1.908-0.302-2.736c0.672-0.828,1.892-0.942,2.729-0.255
		C42.47,20.964,42.604,22.19,41.933,23.018z M27.521,23.162c-1.38,0.837-1.819,2.638-0.985,4.022
		c0.837,1.388,2.634,1.83,4.016,0.991c1.377-0.841,1.813-2.644,0.982-4.027C30.697,22.761,28.9,22.319,27.521,23.162z
		 M29.772,26.888c-0.646,0.391-1.49,0.174-1.891-0.482c-0.396-0.662-0.199-1.514,0.448-1.907c0.644-0.389,1.487-0.177,1.887,0.485
		C30.617,25.643,30.415,26.495,29.772,26.888z M51.701,29.902c-0.879-1.836-3.066-2.614-4.898-1.733
		c-1.831,0.88-2.604,3.082-1.729,4.916c0.876,1.837,3.07,2.617,4.899,1.736C51.802,33.94,52.576,31.739,51.701,29.902z
		 M49.158,33.115c-0.854,0.408-1.886,0.031-2.301-0.843c-0.418-0.87-0.066-1.913,0.794-2.324c0.851-0.413,1.882-0.035,2.303,0.839
		C50.368,31.658,50.014,32.702,49.158,33.115z M51.448,46.895c4.444-3.563,7.983-8.242,8.065-14.151
		c0.233-16.116-11.957-22.44-17.923-22.44s-14.224-0.297-21.788,9.633c-6.146,8.073-1.297,8.941-2.146,11.622
		c-0.846,2.683-3.539,8.922-4.411,10.045c-0.872,1.125,0.22,1.697,1.637,1.936c1.415,0.239,2.069,0.073,2.568,0.98
		c0.625,1.141,2.017,4.181,1.765,6.795c-0.28,2.898-0.084,4.991,1.477,5.5c1.437,0.469,3.444,1.12,10.689-0.482
		c1.526,1.116,4.196,3.618,3.494,7.111c-1.104,5.47,19.341-4.916,20.26-4.979C55.909,58.411,51.016,53.719,51.448,46.895z
		 M34.008,26.387c-0.005,0.053-0.051,0.109-0.102,0.125l-1.215,0.392c-0.09,0.269-0.208,0.525-0.355,0.77l0.521,1.184
		c0.021,0.048,0.01,0.119-0.027,0.158l-0.741,0.701c-0.041,0.034-0.114,0.042-0.16,0.018l-1.17-0.602
		c-0.243,0.122-0.49,0.216-0.745,0.283l-0.481,1.233c-0.019,0.048-0.077,0.09-0.13,0.092l-1.021-0.033
		c-0.052-0.005-0.106-0.05-0.124-0.1l-0.397-1.249c-0.26-0.083-0.508-0.194-0.745-0.331l-1.19,0.521
		c-0.049,0.022-0.12,0.009-0.158-0.026l-0.699-0.745c-0.033-0.041-0.041-0.113-0.019-0.159l0.578-1.129
		c-0.141-0.266-0.245-0.54-0.32-0.82l-1.163-0.457c-0.049-0.019-0.091-0.078-0.092-0.131l0.033-1.022
		c0.005-0.052,0.051-0.108,0.101-0.124l1.146-0.371c0.091-0.306,0.222-0.599,0.385-0.875l-0.479-1.1
		c-0.021-0.049-0.009-0.119,0.026-0.158l0.742-0.699c0.04-0.033,0.112-0.041,0.158-0.017l1.04,0.536
		c0.3-0.163,0.612-0.276,0.93-0.354l0.43-1.094c0.018-0.049,0.077-0.091,0.13-0.092l1.017,0.029
		c0.052,0.006,0.109,0.051,0.125,0.102l0.359,1.125c0.311,0.098,0.607,0.235,0.887,0.409l1.087-0.478
		c0.049-0.021,0.119-0.009,0.157,0.027l0.701,0.748c0.033,0.041,0.041,0.111,0.018,0.158l-0.561,1.092
		c0.14,0.279,0.244,0.567,0.312,0.86l1.152,0.452c0.049,0.02,0.091,0.079,0.093,0.131L34.008,26.387z M41.681,28.673l-1.114-1.463
		c-0.387,0.013-0.769-0.017-1.15-0.086l-1.332,1.258c-0.054,0.052-0.152,0.069-0.222,0.039l-1.279-0.66
		c-0.063-0.037-0.107-0.129-0.099-0.202l0.233-1.771c-0.313-0.285-0.581-0.6-0.813-0.936L34.144,24.8
		c-0.075-0.003-0.156-0.062-0.184-0.131l-0.439-1.373c-0.018-0.073,0.015-0.168,0.074-0.214l1.35-1.036
		c-0.024-0.45,0.013-0.899,0.098-1.344l-1.155-1.23c-0.049-0.054-0.067-0.154-0.038-0.223l0.656-1.284
		c0.038-0.064,0.13-0.108,0.203-0.099l1.637,0.217c0.321-0.356,0.679-0.655,1.064-0.907l0.046-1.656
		c0.003-0.075,0.062-0.158,0.13-0.185l1.37-0.441c0.072-0.018,0.168,0.015,0.213,0.074l1.006,1.32
		c0.459-0.018,0.918,0.023,1.372,0.122l1.22-1.152c0.053-0.051,0.154-0.069,0.222-0.039l1.273,0.659
		c0.064,0.037,0.108,0.128,0.1,0.203l-0.227,1.716c0.317,0.303,0.591,0.634,0.819,0.991l1.75,0.052
		c0.074,0.002,0.158,0.061,0.184,0.13l0.438,1.375c0.019,0.072-0.015,0.167-0.074,0.214l-1.43,1.097
		c0.008,0.397-0.029,0.793-0.109,1.187l1.248,1.33c0.052,0.055,0.069,0.155,0.039,0.224l-0.657,1.278
		c-0.038,0.064-0.129,0.108-0.203,0.098l-1.835-0.242c-0.266,0.279-0.552,0.521-0.859,0.733l-0.054,1.859
		c-0.002,0.074-0.061,0.158-0.131,0.185l-1.367,0.44C41.822,28.766,41.725,28.732,41.681,28.673z M49.148,36.309l-0.753,1.483
		c-0.03,0.06-0.107,0.104-0.175,0.1l-1.27-0.167c-0.065-0.013-0.131-0.076-0.145-0.141l-0.348-1.614
		c-0.313-0.137-0.61-0.306-0.891-0.508l-1.554,0.51c-0.062,0.021-0.151-0.004-0.195-0.054l-0.779-1.019
		c-0.038-0.055-0.039-0.146-0.003-0.202l0.861-1.343c-0.144-0.351-0.24-0.707-0.3-1.066l-1.403-0.717
		c-0.06-0.03-0.104-0.109-0.098-0.175l0.165-1.277c0.012-0.066,0.075-0.131,0.141-0.144l1.482-0.321
		c0.151-0.372,0.351-0.719,0.588-1.045l-0.465-1.437c-0.021-0.063,0.004-0.151,0.053-0.194l1.015-0.786
		c0.057-0.037,0.146-0.038,0.201-0.002l1.24,0.803c0.394-0.165,0.797-0.27,1.202-0.326l0.669-1.32
		c0.029-0.059,0.108-0.104,0.175-0.098l1.27,0.165c0.063,0.012,0.129,0.076,0.143,0.141l0.313,1.452
		c0.379,0.162,0.733,0.371,1.062,0.625l1.421-0.464c0.063-0.021,0.149,0.004,0.193,0.054l0.782,1.02
		c0.036,0.055,0.037,0.146,0.002,0.201l-0.836,1.298c0.143,0.367,0.236,0.739,0.287,1.114l1.39,0.709
		c0.06,0.03,0.104,0.11,0.099,0.175l-0.166,1.276c-0.012,0.065-0.075,0.13-0.139,0.144L52.811,33.5
		c-0.144,0.323-0.322,0.627-0.536,0.915l0.503,1.55c0.021,0.063-0.003,0.15-0.054,0.194l-1.018,0.785
		c-0.055,0.037-0.145,0.038-0.201,0.002l-1.388-0.898C49.797,36.17,49.476,36.257,49.148,36.309z"/>
</g>
</svg>
