<?xml version="1.0" encoding="utf-8"?>
<!-- Generator: Adobe Illustrator 16.0.0, SVG Export Plug-In . SVG Version: 6.00 Build 0)  -->
<svg version="1.2" baseProfile="tiny" id="Layer_1" xmlns="http://www.w3.org/2000/svg" xmlns:xlink="http://www.w3.org/1999/xlink"
	 x="0px" y="0px" width="187.333px" height="61.666px" viewBox="0 0 187.333 61.666" xml:space="preserve">
<g>
	<g>
		<g>
			<g>
				<g>
					<g>
						<g>
							<path d="M12.413,28.261c0.071-0.114,0.116-0.225,0.133-0.32c0.025-0.182-0.058-0.4-0.231-0.616
								c-0.427-0.534-1.294-0.929-1.897-0.871c-0.956,0.092-1.844,0.911-1.991,1.842c-0.146,0.931,0.514,1.634,1.478,1.557
								C10.697,29.79,11.991,28.934,12.413,28.261z"/>
							<path d="M21.976,26.976c0.07-0.552-0.568-1.051-1.978-1.558c-4.237-1.522-6.735-5.315-7.564-11.093
								c0,0-0.003-0.028-0.007-0.057c-0.018-0.017-0.035-0.029-0.035-0.029c-0.197-0.184-0.454-0.368-0.712-0.146
								c-0.555,0.469-0.198,2.479,1.13,8.124l0.52,2.229c0.286,1.267,0.35,2.272,0.209,3.265c-0.144,0.998-0.508,2.059-1.181,3.445
								l-1.228,2.494c-3.279,6.626-4.37,9.076-3.92,9.527c0.211,0.209,0.562-0.061,0.842-0.318c0,0,0.026-0.023,0.051-0.045
								c0.014-0.031,0.025-0.064,0.025-0.064c0.883-2.144,1.854-4.057,2.913-5.745c2.347-3.734,5.175-6.432,8.515-8.07
								c1.246-0.614,1.993-1.132,2.283-1.594C21.918,27.214,21.964,27.097,21.976,26.976z"/>
							<path d="M51.184,15.46c0,0,0.042,0.006,0.078,0.006c0.037-0.019,0.075-0.033,0.075-0.033c0.327-0.143,0.69-0.324,0.842-0.564
								c0.052-0.085,0.082-0.171,0.074-0.27c-0.062-0.815-3.032-0.91-10.926-0.779c0,0-2.831,0.037-2.836,0.039
								c-1.533,0.01-2.605-0.154-3.48-0.534c-0.861-0.378-1.605-0.993-2.414-1.994l-1.41-1.77c-3.529-4.476-4.841-5.917-5.501-5.511
								c-0.081,0.049-0.137,0.11-0.181,0.178c-0.127,0.203-0.127,0.479-0.108,0.714c0,0,0.004,0.03,0.007,0.06
								c0.016,0.017,0.033,0.035,0.033,0.035c3.873,3.929,5.303,8.736,4.013,14.164c-0.417,1.765-0.405,2.696,0.04,2.924
								c0.445,0.23,1.35-0.245,2.853-1.501C37.101,16.641,43.312,14.866,51.184,15.46z"/>
							<path d="M38.458,7.572c-0.847-0.325-2.076,0.286-2.755,1.367c-0.648,1.032-0.744,3.014-0.152,3.266
								c0.597,0.257,2.555-0.979,3.213-2.032C39.458,9.072,39.314,7.904,38.458,7.572z"/>
							<path d="M27.585,44.885c0,0,1.971-2.441,1.972-2.441c1.104-1.356,2.05-2.231,3.069-2.844
								c1.023-0.612,2.218-1.009,3.883-1.292l3.06-0.506c8.486-1.362,11.674-2.036,11.804-2.968
								c0.062-0.429-0.446-0.631-0.896-0.763c0,0-0.039-0.012-0.078-0.02c-0.043,0.004-0.084,0.017-0.084,0.017
								c-8.455,2.159-14.819,1.329-19.11-2.181c-1.314-1.076-2.16-1.416-2.676-1.093c-0.107,0.07-0.201,0.167-0.282,0.296
								c-0.306,0.486-0.428,1.42-0.38,2.883c0.125,4.059-1.118,8.227-3.713,12.355c-1.169,1.869-2.608,3.705-4.301,5.511
								c0,0-0.026,0.031-0.049,0.058c-0.014,0.036-0.023,0.072-0.023,0.072c-0.125,0.426-0.228,0.941,0.074,1.127
								C20.509,53.496,22.437,51.306,27.585,44.885z"/>
							<path d="M32.821,44.558c0.289,0.639,0.801,1.113,1.405,1.294c0.487,0.146,0.995,0.092,1.432-0.159
								c0.438-0.251,0.774-0.679,0.95-1.211c0.219-0.661,0.171-1.41-0.135-2.05c-0.545-1.137-2.47-2.218-3.175-1.799
								c-0.094,0.057-0.188,0.157-0.273,0.293c-0.081,0.132-0.156,0.294-0.223,0.488C32.476,42.378,32.481,43.816,32.821,44.558z"/>
						</g>
						<g>
							<path d="M69.391,23.293c0.074-0.058,0.114-0.138,0.116-0.218c-0.002-0.08-0.045-0.153-0.124-0.197
								c-0.563-0.35-12.955-7.874-23.387-5.161c-0.086,0.024-0.159,0.076-0.202,0.146c-0.02,0.035-0.037,0.073-0.04,0.117
								c-0.009,0.115,0.076,0.205,0.201,0.215c6.896,0.488,13.619,4.188,15.606,5.367l0.331,0.196l-0.335,0.253
								c-2.013,1.52-9.009,6.512-16.213,8.331c-0.136,0.034-0.234,0.149-0.234,0.276c-0.005,0.127,0.093,0.227,0.227,0.235
								C56.06,33.803,68.834,23.735,69.391,23.293z"/>
							<path d="M25.749,8.883c0.088-0.064,0.136-0.18,0.104-0.27C23.82,2.037,15.124,0.534,14.777,0.478
								c-0.044-0.01-0.097,0.009-0.146,0.045c-0.051,0.036-0.088,0.09-0.104,0.144c-0.13,0.423-3.156,10.576,0.365,15.847
								c0.047,0.069,0.147,0.082,0.23,0.021c0.088-0.058,0.138-0.17,0.121-0.261c-0.847-4.761,0.495-10.479,0.921-12.097
								l0.068-0.266l0.218,0.053c1.316,0.314,6.016,1.629,9.037,4.926C25.55,8.952,25.657,8.951,25.749,8.883z"/>
							<path d="M21.305,46.8c0.055-0.125,0.03-0.254-0.054-0.32l0,0c-0.082-0.064-0.205-0.041-0.291,0.053
								c-4.426,4.926-10.422,7.711-12.105,8.434l-0.271,0.111l0.014-0.338c0.084-2.041,0.552-8.979,3.008-14.812
								c0.046-0.112,0.023-0.231-0.051-0.28c-0.074-0.048-0.184-0.016-0.259,0.072c-5.59,7.016-5.931,19.697-5.943,20.26
								c-0.003,0.076,0.021,0.14,0.065,0.185c0.043,0.04,0.104,0.048,0.16,0.028C6.027,60.03,17.093,55.945,21.305,46.8z"/>
						</g>
					</g>
				</g>
				<g>
					<path d="M95.867,39.307h3.463v3.246h0.076c1.074-2.315,3.668-3.719,6.373-3.719c5.029,0,7.275,3.286,7.275,8.777v12.153h-3.592
						V49.167c0-4.766-0.988-7.082-4.109-7.282c-4.076,0-5.902,3.444-5.902,8.411v9.469h-3.584V39.307z"/>
					<path d="M129.641,40.759c1.781-1.134,3.924-1.925,6.4-1.925c5.557,0,7.797,2.887,7.797,8.449v8.47
						c0,2.331,0.086,3.408,0.164,4.012h-3.359v-2.65h-0.064c-0.852,1.247-2.748,3.126-6.031,3.126c-4.188,0-7.121-1.923-7.121-6.374
						c0-5.139,5.33-6.74,9.033-6.74c1.41,0,2.389,0,3.803,0.091c0-3.532-1.215-5.332-4.793-5.332c-2.029,0-4.197,0.792-5.641,2.081
						L129.641,40.759 M140.262,50.016c-0.766,0-1.518-0.081-2.289-0.081c-1.932,0-6.742,0.321-6.742,3.932
						c0,2.169,1.984,3.336,3.623,3.336c3.543,0,5.408-2.329,5.408-5.382V50.016z"/>
					<path d="M157.938,42.604c-0.51-0.123-1.027-0.157-1.479-0.157c-3.375,0-5.582,3.21-5.582,8.349v8.969h-3.775V39.472h3.539
						v3.339h0.074c1.006-2.13,3.174-3.653,5.336-3.653c0.824,0,1.352,0.062,1.887,0.159V42.604z"/>
					<path d="M176.781,38.834c5.896,0,9.867,4.489,9.867,10.709c0,5.851-4.035,10.697-9.867,10.697
						c-5.879,0-9.904-4.847-9.904-10.697C166.877,43.323,170.828,38.834,176.781,38.834 M176.781,57.202
						c4.184,0,6.059-4.006,6.059-7.659c0-3.892-2.252-7.658-6.059-7.658c-3.854,0-6.096,3.767-6.096,7.658
						C170.686,53.196,172.543,57.202,176.781,57.202z"/>
					<path d="M125.984,39.307h-5.248v-5.936l-3.754,1.204v4.711l-3.092,3.087h3.092v11.936c0,4.092,2.402,5.932,6.293,5.932
						c1.113,0,2.213-0.271,3.043-0.509v-3.167c-0.561,0.335-1.363,0.638-2.396,0.638c-1.73,0-3.186-1.286-3.186-3.656V42.357h5.248
						V39.307z"/>
					<rect x="160.279" y="39.307" width="3.766" height="20.458"/>
					<g>
						<path d="M162.156,36.579c1.273,0,2.303-1.026,2.303-2.31c0-1.278-1.029-2.306-2.303-2.306c-1.281,0-2.314,1.027-2.314,2.306
							C159.842,35.553,160.875,36.579,162.156,36.579z"/>
					</g>
					<path d="M80.217,31.298c8.09,0,12.818,6.17,12.818,14.464c0,8.504-4.693,14.479-12.818,14.479
						c-8.111,0-12.795-5.975-12.795-14.479C67.422,37.468,72.148,31.298,80.217,31.298 M80.217,56.718
						c6.139,0,8.773-5.376,8.773-10.956c0-5.687-2.896-10.978-8.773-10.941c-5.855-0.036-8.752,5.255-8.752,10.941
						C71.465,51.342,74.1,56.718,80.217,56.718z"/>
				</g>
			</g>
		</g>
	</g>
</g>
</svg>
