<?xml version="1.0" encoding="utf-8"?>
<!-- Generator: Adobe Illustrator 16.0.0, SVG Export Plug-In . SVG Version: 6.00 Build 0)  -->
<svg version="1.2" baseProfile="tiny" id="Layer_1" xmlns="http://www.w3.org/2000/svg" xmlns:xlink="http://www.w3.org/1999/xlink"
	 x="0px" y="0px" width="75px" height="75px" viewBox="0 0 75 75" xml:space="preserve">
<path fill="#C0D660" d="M37.5,1.275C16.823,1.275,0,18.097,0,38.774c0,11.124,4.852,18.102,8.922,21.997
	c4.936,4.724,11.623,7.543,17.887,7.543c9.035,0,15.105-5.697,15.105-14.179V33.582l6.298,6.297
	c0.631,0.631,1.458,0.946,2.285,0.946s1.655-0.315,2.286-0.946c1.263-1.263,1.263-3.31,0-4.572L38.683,21.205L24.582,35.307
	c-1.263,1.262-1.263,3.309,0,4.572c1.261,1.263,3.31,1.263,4.571,0l6.297-6.297v20.554c0,6.962-6.042,7.714-8.64,7.714
	c-13.878,0-20.344-13.77-20.344-23.075C6.466,21.662,20.388,7.74,37.5,7.74s31.035,13.922,31.035,31.034
	c0,12.649-7.562,23.925-19.265,28.726c-1.651,0.679-2.44,2.566-1.764,4.219c0.514,1.25,1.72,2.006,2.993,2.006
	c0.408,0,0.824-0.077,1.226-0.242C65.865,67.682,75,54.058,75,38.774C75,18.097,58.179,1.275,37.5,1.275z"/>
</svg>
