<?xml version="1.0" encoding="utf-8"?>
<!-- Generator: Adobe Illustrator 16.0.0, SVG Export Plug-In . SVG Version: 6.00 Build 0)  -->
<svg version="1.2" baseProfile="tiny" id="Layer_1" xmlns="http://www.w3.org/2000/svg" xmlns:xlink="http://www.w3.org/1999/xlink"
	 x="0px" y="0px" width="75px" height="75px" viewBox="0 0 75 75" xml:space="preserve">
<g>
	<g>
		<g>
			<g>
				<g>
					<g>
						<g>
							<path d="M8.257,35.07c0.081-0.132,0.133-0.262,0.152-0.374c0.032-0.213-0.067-0.469-0.269-0.721
								c-0.499-0.625-1.514-1.085-2.217-1.018c-1.118,0.107-2.158,1.065-2.328,2.154c-0.172,1.087,0.6,1.909,1.725,1.819
								C6.251,36.859,7.763,35.857,8.257,35.07z"/>
							<path d="M19.436,33.567c0.08-0.644-0.667-1.227-2.312-1.819c-4.957-1.78-7.875-6.215-8.844-12.968
								c0,0-0.004-0.035-0.009-0.066c-0.021-0.02-0.042-0.034-0.042-0.034c-0.228-0.216-0.529-0.431-0.833-0.172
								c-0.648,0.548-0.23,2.897,1.323,9.498l0.607,2.604c0.333,1.481,0.407,2.658,0.244,3.818c-0.168,1.166-0.594,2.406-1.38,4.026
								L6.755,41.37c-3.834,7.744-5.108,10.61-4.584,11.137c0.249,0.246,0.658-0.071,0.984-0.37c0,0,0.032-0.027,0.06-0.053
								c0.018-0.037,0.032-0.076,0.032-0.076c1.03-2.507,2.167-4.742,3.404-6.716c2.742-4.365,6.049-7.519,9.955-9.434
								c1.456-0.719,2.328-1.323,2.668-1.863C19.366,33.846,19.419,33.709,19.436,33.567z"/>
							<path d="M53.58,20.106c0,0,0.048,0.007,0.089,0.007c0.044-0.021,0.09-0.039,0.09-0.039c0.382-0.167,0.806-0.379,0.982-0.66
								c0.06-0.099,0.097-0.199,0.087-0.314c-0.073-0.954-3.544-1.065-12.771-0.912c0,0-3.31,0.044-3.314,0.046
								c-1.794,0.012-3.045-0.18-4.069-0.625c-1.007-0.441-1.876-1.161-2.821-2.331c0,0-1.649-2.066-1.649-2.069
								c-4.126-5.231-5.658-6.917-6.431-6.442c-0.095,0.058-0.159,0.129-0.212,0.208c-0.147,0.238-0.147,0.56-0.127,0.833
								c0,0,0.005,0.036,0.007,0.071c0.021,0.019,0.039,0.041,0.039,0.041c4.529,4.592,6.201,10.213,4.692,16.558
								c-0.487,2.063-0.474,3.152,0.049,3.418c0.52,0.271,1.575-0.286,3.332-1.754C37.116,21.486,44.377,19.411,53.58,20.106z"/>
							<path d="M38.703,10.885c-0.989-0.38-2.427,0.335-3.223,1.598c-0.757,1.208-0.869,3.523-0.177,3.819
								c0.699,0.299,2.987-1.146,3.756-2.377C39.871,12.639,39.703,11.272,38.703,10.885z"/>
							<path d="M25.993,54.505c0,0,2.302-2.854,2.305-2.854c1.29-1.585,2.395-2.61,3.586-3.326c1.195-0.715,2.594-1.18,4.54-1.509
								l3.574-0.591c9.922-1.594,13.648-2.381,13.8-3.471c0.074-0.502-0.52-0.738-1.044-0.891c0,0-0.046-0.014-0.092-0.022
								c-0.051,0.005-0.099,0.019-0.099,0.019c-9.884,2.525-17.324,1.555-22.341-2.55c-1.539-1.257-2.525-1.655-3.128-1.278
								c-0.124,0.083-0.234,0.196-0.331,0.347c-0.354,0.567-0.499,1.658-0.444,3.37c0.147,4.742-1.307,9.616-4.34,14.444
								c-1.366,2.185-3.048,4.328-5.028,6.439c0,0-0.03,0.037-0.055,0.069c-0.016,0.041-0.028,0.083-0.028,0.083
								c-0.147,0.499-0.267,1.1,0.087,1.32C17.72,64.57,19.974,62.01,25.993,54.505z"/>
							<path d="M32.113,54.124c0.338,0.745,0.937,1.3,1.643,1.511c0.567,0.171,1.163,0.108,1.674-0.186
								c0.514-0.295,0.906-0.794,1.109-1.417c0.257-0.773,0.202-1.647-0.157-2.395c-0.635-1.329-2.886-2.592-3.712-2.104
								c-0.108,0.068-0.219,0.184-0.317,0.343c-0.097,0.154-0.184,0.343-0.262,0.572C31.709,51.573,31.716,53.254,32.113,54.124z"/>
						</g>
						<g>
							<path d="M74.864,29.262c0.085-0.066,0.134-0.16,0.136-0.254c-0.002-0.094-0.053-0.18-0.145-0.231
								c-0.66-0.407-15.146-9.205-27.341-6.032c-0.102,0.028-0.187,0.087-0.234,0.169c-0.023,0.042-0.044,0.085-0.047,0.137
								c-0.011,0.136,0.086,0.239,0.235,0.252c8.062,0.57,15.918,4.896,18.243,6.273l0.387,0.23l-0.391,0.297
								c-2.355,1.774-10.532,7.611-18.955,9.737c-0.158,0.041-0.273,0.175-0.273,0.322c-0.005,0.151,0.108,0.267,0.265,0.275
								C59.279,41.549,74.213,29.78,74.864,29.262z"/>
							<path d="M23.847,12.417c0.102-0.075,0.156-0.21,0.12-0.314C21.591,4.414,11.424,2.658,11.02,2.591
								c-0.05-0.01-0.113,0.011-0.17,0.053c-0.06,0.042-0.104,0.104-0.122,0.168c-0.152,0.493-3.689,12.364,0.428,18.524
								c0.055,0.082,0.172,0.097,0.269,0.025c0.104-0.067,0.161-0.198,0.141-0.306c-0.989-5.565,0.58-12.249,1.079-14.141
								l0.078-0.311l0.255,0.062c1.539,0.367,7.034,1.905,10.566,5.758C23.614,12.499,23.739,12.496,23.847,12.417z"/>
							<path d="M18.648,56.744c0.064-0.147,0.037-0.297-0.062-0.375l0,0c-0.097-0.076-0.239-0.049-0.341,0.06
								c-5.172,5.759-12.183,9.016-14.149,9.862l-0.32,0.129l0.019-0.396c0.096-2.385,0.644-10.495,3.514-17.314
								c0.055-0.132,0.028-0.271-0.06-0.327c-0.087-0.058-0.214-0.019-0.301,0.083C0.414,56.667,0.014,71.494,0,72.151
								c-0.002,0.088,0.025,0.161,0.078,0.217c0.046,0.046,0.12,0.055,0.187,0.032C0.789,72.208,13.727,67.434,18.648,56.744z"/>
						</g>
					</g>
				</g>
			</g>
		</g>
	</g>
</g>
</svg>
