<?xml version="1.0" encoding="utf-8"?>
<!-- Generator: Adobe Illustrator 16.0.0, SVG Export Plug-In . SVG Version: 6.00 Build 0)  -->
<svg version="1.2" baseProfile="tiny" id="Layer_1" xmlns="http://www.w3.org/2000/svg" xmlns:xlink="http://www.w3.org/1999/xlink"
	 x="0px" y="0px" width="75px" height="75px" viewBox="0 0 75 75" xml:space="preserve">
<polygon fill="#C0D660" points="48.144,59.094 48.087,58.957 48.03,59.094 48.087,59.154 "/>
<path fill="#C0D660" d="M38.061,13.388c-11.518,0-20.854,10.774-20.854,24.062c0,2.911,0.47,5.687,1.291,8.269
	c-2.453,3.603-4.499,6.937-4.499,8.046c0,1.673,5.752,1.893,10.37,1.805c3.666,3.69,8.447,5.943,13.692,5.943
	c11.518,0,20.854-10.774,20.854-24.062S49.578,13.388,38.061,13.388z M48.781,49.817c-2.055-2.056,2.905-8.25-2.443-7.015
	c-2.832,0.654,2.443-7.046-0.464-4.139c-2.904,2.903-8.252,5.345-11.16,2.437c-2.904-2.907-14.528,0-11.621-11.623
	c2.902-11.624,20.341-11.624,23.245-8.717c2.908,2.904,11.621,8.717,5.809,20.34C52.146,41.1,51.687,52.724,48.781,49.817z"/>
</svg>
