<?xml version="1.0" encoding="utf-8"?>
<!-- Generator: Adobe Illustrator 16.0.0, SVG Export Plug-In . SVG Version: 6.00 Build 0)  -->
<svg version="1.2" baseProfile="tiny" id="Layer_1" xmlns="http://www.w3.org/2000/svg" xmlns:xlink="http://www.w3.org/1999/xlink"
	 x="0px" y="0px" width="75px" height="75px" viewBox="0 0 75 75" xml:space="preserve">
<g>
	<g>
		<g>
			<path d="M50.081,46.03c2.006-2.346,6.123-5.512,9.031-8.595V8.898H29.485C36.359,20.16,44.852,34.13,50.081,46.03z"/>
			<path d="M46.654,57.565c-0.56,1.796-0.768,3.602-0.521,5.493c0.363,2.761,1.717,4.179,2.862,4.584
				c0.444,0.158,0.883,0.167,1.298,0.058c0.046-0.045,0.095-0.083,0.14-0.132c1.079-1.233,1.527-3.712,1.166-6.465
				c-0.337-2.566-1.17-5.533-2.366-8.767c-0.285,0.433-0.547,0.863-0.797,1.289C47.758,54.814,47.133,56.137,46.654,57.565z"/>
			<path d="M51.505,49.269c0.856,1.903,1.497,3.509,1.854,4.712c0.635,2.128,0.997,3.952,1.183,5.535
				c0.067,0.39,0.159,0.795,0.208,1.171c0.493,3.746-0.211,7.018-1.929,8.974c-1.042,1.19-2.384,1.815-3.88,1.815
				c-1.332,0-2.702-0.685-3.859-1.93c-1.81-1.949-2.717-4.842-2.487-7.934c0.396-5.332,2.974-9.836,5.231-12.823
				C42.717,36.677,33.613,21.763,26.43,9.995c-0.226-0.373-0.445-0.729-0.668-1.097h-17.5V75h50.849V42.096
				C56.573,44.854,52.991,47.476,51.505,49.269z"/>
		</g>
		<circle cx="64.195" cy="38.134" r="2.542"/>
		<path d="M28.603,3.176c0,1.753-1.427,3.181-3.18,3.181c-1.753,0-3.177-1.427-3.177-3.181C22.246,1.423,23.669,0,25.422,0
			C27.175,0,28.603,1.423,28.603,3.176z"/>
	</g>
</g>
</svg>
