<?xml version="1.0" encoding="utf-8"?>
<!-- Generator: Adobe Illustrator 16.0.0, SVG Export Plug-In . SVG Version: 6.00 Build 0)  -->
<svg version="1.2" baseProfile="tiny" id="Layer_1" xmlns="http://www.w3.org/2000/svg" xmlns:xlink="http://www.w3.org/1999/xlink"
	 x="0px" y="0px" width="209px" height="75px" viewBox="0 0 209 75" xml:space="preserve">
<g>
	<path d="M42.58,46.029c2.006-2.346,6.123-5.512,9.031-8.594V8.898H21.985C28.859,20.16,37.352,34.13,42.58,46.029z"/>
	<path d="M38.633,63.058c0.362,2.761,1.717,4.179,2.861,4.584c0.445,0.157,0.884,0.167,1.299,0.058
		c0.047-0.045,0.096-0.082,0.141-0.133c1.078-1.232,1.526-3.711,1.165-6.465c-0.337-2.566-1.171-5.533-2.366-8.767
		c-0.285,0.433-0.547,0.863-0.797,1.288c-0.678,1.191-1.303,2.514-1.781,3.941C38.594,59.361,38.387,61.166,38.633,63.058z"/>
	<path d="M44.005,49.27c0.856,1.902,1.497,3.508,1.854,4.711c0.635,2.129,0.996,3.952,1.184,5.535
		c0.066,0.391,0.158,0.795,0.207,1.171c0.492,3.746-0.211,7.018-1.929,8.974c-1.042,1.19-2.384,1.815-3.88,1.815
		c-1.332,0-2.703-0.685-3.859-1.931c-1.81-1.948-2.717-4.842-2.487-7.934c0.396-5.332,2.974-9.836,5.231-12.822
		C35.217,36.678,26.113,21.764,18.93,9.994c-0.226-0.372-0.445-0.729-0.668-1.096H0.763V75h50.849V42.096
		C49.073,44.854,45.49,47.476,44.005,49.27z"/>
	<path d="M56.696,35.594c-1.404,0-2.544,1.133-2.544,2.54c0,1.406,1.14,2.544,2.544,2.544c1.403,0,2.541-1.138,2.541-2.544
		C59.237,36.727,58.1,35.594,56.696,35.594z"/>
	<path d="M17.922,6.357c1.754,0,3.181-1.428,3.181-3.182C21.103,1.424,19.676,0,17.922,0c-1.753,0-3.176,1.424-3.176,3.176
		C14.746,4.93,16.169,6.357,17.922,6.357z"/>
	<path d="M68.221,24.518c1,0,1.641-0.68,1.641-1.521c-0.021-0.88-0.641-1.54-1.621-1.54s-1.62,0.66-1.6,1.54
		C66.62,23.838,67.26,24.518,68.221,24.518z"/>
	<rect x="66.721" y="25.718" width="3.04" height="9.782"/>
	<path d="M77.98,25.498c-1.619,0-2.62,0.94-3.02,1.561H74.9l-0.141-1.341h-2.641c0.041,0.86,0.08,1.9,0.08,3.121V35.5h3.041v-5.642
		c0-0.279,0.04-0.58,0.12-0.76c0.2-0.561,0.7-1.141,1.54-1.141c1.101,0,1.541,0.86,1.541,2.121V35.5h3.041v-5.801
		C81.482,26.818,79.981,25.498,77.98,25.498z"/>
	<path d="M88.541,35.7c1.16,0,2.18-0.2,2.721-0.44L90.9,33.02c-0.459,0.18-1.02,0.3-1.74,0.3c-1.48,0-2.68-0.94-2.68-2.74
		c-0.021-1.601,1.02-2.741,2.62-2.741c0.8,0,1.341,0.141,1.7,0.301l0.48-2.261c-0.641-0.24-1.521-0.38-2.32-0.38
		c-3.641,0-5.602,2.34-5.602,5.201C83.359,33.779,85.38,35.7,88.541,35.7z"/>
	<rect x="92.939" y="21.297" width="3.04" height="14.203"/>
	<path d="M104.9,34.12h0.061l0.14,1.38h2.641c-0.04-0.82-0.08-1.86-0.08-3.141v-6.642H104.6v5.821c0,0.24-0.02,0.48-0.1,0.66
		c-0.199,0.48-0.68,1.061-1.52,1.061c-1.061,0-1.521-0.86-1.521-2.28v-5.262h-3.061v5.741c0,3.021,1.461,4.261,3.441,4.261
		C103.6,35.72,104.521,34.72,104.9,34.12z"/>
	<path d="M114.279,29.519c-1.2-0.42-1.58-0.66-1.58-1.12c0-0.5,0.42-0.8,1.16-0.8c0.84,0,1.681,0.319,2.121,0.56l0.539-2.101
		c-0.6-0.3-1.619-0.56-2.76-0.56c-2.421,0-3.98,1.38-3.98,3.2c-0.021,1.16,0.76,2.261,2.779,2.941c1.141,0.38,1.441,0.62,1.441,1.12
		s-0.381,0.82-1.301,0.82c-0.9,0-2.061-0.4-2.621-0.74l-0.539,2.18c0.74,0.4,1.88,0.681,3.16,0.681c2.801,0,4.24-1.341,4.24-3.161
		C116.92,31.099,116.141,30.159,114.279,29.519z"/>
	<path d="M120.279,24.518c1,0,1.64-0.68,1.64-1.521c-0.021-0.88-0.64-1.54-1.62-1.54s-1.621,0.66-1.601,1.54
		C118.678,23.838,119.318,24.518,120.279,24.518z"/>
	<rect x="118.778" y="25.718" width="3.04" height="9.782"/>
	<path d="M129.819,35.5l3.642-9.782h-3.201L129,30.259c-0.221,0.84-0.381,1.58-0.541,2.381h-0.06c-0.14-0.78-0.32-1.561-0.561-2.381
		l-1.319-4.541h-3.301l3.561,9.782H129.819z"/>
	<path d="M142.36,33.039c-0.82,0.261-1.66,0.4-2.7,0.4c-1.421,0-2.661-0.6-2.762-1.86h6.303c0.039-0.22,0.1-0.68,0.1-1.2
		c0-2.421-1.201-4.881-4.361-4.881c-3.4,0-4.941,2.74-4.941,5.221c0,3.061,1.9,4.981,5.222,4.981c1.32,0,2.54-0.2,3.54-0.601
		L142.36,33.039z M138.76,27.519c1.4,0,1.721,1.24,1.721,1.98h-3.602C136.959,28.679,137.479,27.519,138.76,27.519z"/>
	<path d="M158.641,21.297H155.6v5.301h-0.039c-0.44-0.68-1.381-1.1-2.581-1.1c-2.341,0-4.401,1.9-4.381,5.201
		c0,3.04,1.86,5.021,4.181,5.021c1.26,0,2.441-0.56,3.061-1.66h0.041l0.139,1.44h2.701c-0.04-0.66-0.08-1.82-0.08-2.921V21.297z
		 M155.6,31.139c0,0.261-0.02,0.48-0.08,0.7c-0.18,0.86-0.879,1.461-1.76,1.461c-1.26,0-2.08-1.04-2.08-2.701
		c0-1.54,0.72-2.78,2.1-2.78c0.94,0,1.601,0.68,1.781,1.5c0.02,0.16,0.039,0.381,0.039,0.54V31.139z"/>
	<path d="M165.459,25.498c-3.4,0-4.94,2.74-4.94,5.221c0,3.061,1.9,4.981,5.222,4.981c1.32,0,2.54-0.2,3.54-0.601l-0.399-2.061
		c-0.82,0.261-1.661,0.4-2.701,0.4c-1.42,0-2.66-0.6-2.761-1.86h6.302c0.04-0.22,0.1-0.68,0.1-1.2
		C169.82,27.958,168.62,25.498,165.459,25.498z M163.398,29.499c0.08-0.82,0.602-1.98,1.881-1.98c1.4,0,1.721,1.24,1.721,1.98
		H163.398z"/>
	<path d="M175.82,29.519c-1.201-0.42-1.581-0.66-1.581-1.12c0-0.5,0.42-0.8,1.16-0.8c0.841,0,1.681,0.319,2.12,0.56l0.541-2.101
		c-0.601-0.3-1.621-0.56-2.762-0.56c-2.42,0-3.98,1.38-3.98,3.2c-0.02,1.16,0.76,2.261,2.781,2.941c1.14,0.38,1.439,0.62,1.439,1.12
		s-0.379,0.82-1.3,0.82c-0.9,0-2.061-0.4-2.62-0.74l-0.541,2.18c0.74,0.4,1.881,0.681,3.161,0.681c2.801,0,4.241-1.341,4.241-3.161
		C178.46,31.099,177.68,30.159,175.82,29.519z"/>
	<path d="M181.839,21.457c-0.979,0-1.62,0.66-1.6,1.54c-0.021,0.841,0.62,1.521,1.58,1.521c1,0,1.641-0.68,1.641-1.521
		C183.439,22.117,182.819,21.457,181.839,21.457z"/>
	<rect x="180.319" y="25.718" width="3.04" height="9.782"/>
	<path d="M192.399,26.878h-0.04c-0.5-0.8-1.34-1.38-2.68-1.38c-2.401,0-4.441,2-4.441,5.141c0,2.821,1.721,4.781,4.141,4.781
		c1.12,0,2.061-0.46,2.641-1.28h0.04v0.641c0,1.8-1.1,2.58-2.54,2.58c-1.141,0-2.221-0.38-2.841-0.74l-0.601,2.301
		c0.881,0.5,2.241,0.76,3.521,0.76c1.439,0,2.9-0.28,3.98-1.2c1.101-0.98,1.48-2.521,1.48-4.4v-5.462c0-1.46,0.04-2.28,0.08-2.9
		H192.5L192.399,26.878z M192.02,31.139c0,0.261-0.02,0.58-0.1,0.801c-0.2,0.72-0.82,1.24-1.601,1.24c-1.28,0-2-1.141-2-2.601
		c0-1.78,0.899-2.78,2-2.78c0.84,0,1.42,0.54,1.641,1.34c0.04,0.16,0.06,0.36,0.06,0.561V31.139z"/>
	<path d="M203.28,25.498c-1.621,0-2.621,0.94-3.021,1.561h-0.06l-0.14-1.341h-2.641c0.04,0.86,0.08,1.9,0.08,3.121V35.5h3.04v-5.642
		c0-0.279,0.04-0.58,0.12-0.76c0.2-0.561,0.7-1.141,1.54-1.141c1.101,0,1.541,0.86,1.541,2.121V35.5h3.04v-5.801
		C206.78,26.818,205.28,25.498,203.28,25.498z"/>
	<path d="M68.561,51.719h-0.08l-0.061-1.9h-1.539c0.06,0.899,0.08,1.88,0.08,3.021V59.5h1.74v-5.161c0-0.3,0.039-0.58,0.08-0.82
		c0.239-1.32,1.119-2.261,2.359-2.261c0.24,0,0.421,0.021,0.601,0.061v-1.66c-0.16-0.04-0.3-0.061-0.5-0.061
		C70.061,49.598,69.001,50.418,68.561,51.719z"/>
	<path d="M77.142,49.598c-2.821,0-4.541,2.301-4.541,5.222c0,2.92,1.78,4.881,4.761,4.881c1.541,0,2.601-0.32,3.221-0.601l-0.3-1.26
		c-0.66,0.28-1.421,0.5-2.681,0.5c-1.76,0-3.281-0.98-3.32-3.36h6.801c0.021-0.181,0.061-0.461,0.061-0.82
		C81.143,52.379,80.303,49.598,77.142,49.598z M74.301,53.719c0.141-1.221,0.92-2.86,2.701-2.86c1.98,0,2.46,1.74,2.439,2.86H74.301
		z"/>
	<path d="M86.441,53.879c-1.26-0.48-1.84-0.84-1.84-1.641c0-0.72,0.58-1.32,1.619-1.32c0.9,0,1.602,0.32,1.98,0.561l0.44-1.28
		c-0.54-0.32-1.399-0.601-2.38-0.601c-2.081,0-3.342,1.28-3.342,2.841c0,1.16,0.82,2.12,2.561,2.74
		c1.301,0.48,1.801,0.94,1.801,1.78c0,0.801-0.6,1.44-1.881,1.44c-0.879,0-1.8-0.359-2.32-0.7l-0.439,1.341
		c0.68,0.4,1.66,0.66,2.721,0.66c2.301,0,3.621-1.2,3.621-2.9C88.982,55.359,88.121,54.519,86.441,53.879z"/>
	<path d="M95.082,49.598c-2.821,0-4.541,2.301-4.541,5.222c0,2.92,1.779,4.881,4.76,4.881c1.541,0,2.602-0.32,3.221-0.601
		l-0.299-1.26c-0.66,0.28-1.421,0.5-2.682,0.5c-1.76,0-3.28-0.98-3.32-3.36h6.802c0.021-0.181,0.06-0.461,0.06-0.82
		C99.082,52.379,98.242,49.598,95.082,49.598z M92.24,53.719c0.141-1.221,0.921-2.86,2.701-2.86c1.98,0,2.461,1.74,2.44,2.86H92.24z
		"/>
	<path d="M108.062,53.559c0-1.94-0.721-3.961-3.682-3.961c-1.22,0-2.38,0.34-3.18,0.86l0.399,1.16c0.681-0.44,1.62-0.72,2.521-0.72
		c1.98,0,2.201,1.44,2.201,2.24v0.2c-3.741-0.021-5.822,1.26-5.822,3.601c0,1.4,1,2.78,2.961,2.78c1.381,0,2.421-0.68,2.961-1.44
		h0.061l0.139,1.221h1.602c-0.121-0.66-0.16-1.48-0.16-2.32V53.559z M106.361,56.239c0,0.18-0.039,0.38-0.1,0.561
		c-0.28,0.819-1.08,1.62-2.34,1.62c-0.9,0-1.661-0.54-1.661-1.681c0-1.88,2.181-2.221,4.101-2.181V56.239z"/>
	<path d="M112.5,51.719h-0.08l-0.06-1.9h-1.54c0.061,0.899,0.08,1.88,0.08,3.021V59.5h1.74v-5.161c0-0.3,0.04-0.58,0.08-0.82
		c0.24-1.32,1.12-2.261,2.36-2.261c0.24,0,0.421,0.021,0.601,0.061v-1.66c-0.16-0.04-0.301-0.061-0.5-0.061
		C114.001,49.598,112.941,50.418,112.5,51.719z"/>
	<path d="M121.741,51.019c0.96,0,1.62,0.22,2.04,0.46l0.4-1.36c-0.48-0.24-1.4-0.5-2.44-0.5c-3.161,0-5.201,2.16-5.201,5.141
		c0,2.961,1.9,4.941,4.821,4.941c1.3,0,2.32-0.32,2.78-0.561l-0.3-1.32c-0.5,0.221-1.16,0.48-2.16,0.48
		c-1.921,0-3.361-1.38-3.361-3.621C118.32,52.658,119.521,51.019,121.741,51.019z"/>
	<path d="M131.061,49.598c-0.66,0-1.279,0.2-1.8,0.5c-0.54,0.301-0.98,0.74-1.261,1.24h-0.039v-6.041H126.2V59.5h1.761v-5.841
		c0-0.341,0.02-0.601,0.119-0.841c0.32-0.96,1.221-1.76,2.361-1.76c1.66,0,2.24,1.32,2.24,2.88V59.5h1.76v-5.762
		C134.441,50.398,132.361,49.598,131.061,49.598z"/>
	<path d="M146.041,51.019c0.959,0,1.619,0.22,2.04,0.46l0.399-1.36c-0.479-0.24-1.4-0.5-2.439-0.5c-3.161,0-5.201,2.16-5.201,5.141
		c0,2.961,1.9,4.941,4.82,4.941c1.301,0,2.32-0.32,2.781-0.561l-0.301-1.32c-0.5,0.221-1.16,0.48-2.16,0.48
		c-1.92,0-3.361-1.38-3.361-3.621C142.619,52.658,143.82,51.019,146.041,51.019z"/>
	<path d="M154.221,49.598c-2.82,0-4.541,2.301-4.541,5.222c0,2.92,1.78,4.881,4.761,4.881c1.54,0,2.601-0.32,3.221-0.601l-0.3-1.26
		c-0.66,0.28-1.42,0.5-2.681,0.5c-1.761,0-3.28-0.98-3.321-3.36h6.803c0.02-0.181,0.059-0.461,0.059-0.82
		C158.221,52.379,157.381,49.598,154.221,49.598z M151.38,53.719c0.14-1.221,0.921-2.86,2.7-2.86c1.98,0,2.461,1.74,2.441,2.86
		H151.38z"/>
	<path d="M165.221,49.598c-1.6,0-2.721,0.9-3.201,1.82h-0.039l-0.101-1.6h-1.56c0.06,0.8,0.08,1.62,0.08,2.62V59.5h1.76v-5.821
		c0-0.3,0.04-0.6,0.12-0.82c0.3-0.98,1.2-1.8,2.36-1.8c1.66,0,2.24,1.3,2.24,2.86V59.5h1.761v-5.781
		C168.642,50.398,166.561,49.598,165.221,49.598z"/>
	<path d="M173.539,47.037l-1.72,0.46v2.321h-1.501v1.34h1.501v5.281c0,1.141,0.181,2,0.681,2.521c0.42,0.48,1.08,0.74,1.9,0.74
		c0.68,0,1.22-0.101,1.561-0.24l-0.08-1.32c-0.221,0.061-0.561,0.12-1.021,0.12c-0.979,0-1.32-0.68-1.32-1.881v-5.221h2.521v-1.34
		h-2.521V47.037z"/>
	<path d="M179.64,51.719h-0.08l-0.06-1.9h-1.541c0.061,0.899,0.08,1.88,0.08,3.021V59.5h1.74v-5.161c0-0.3,0.04-0.58,0.08-0.82
		c0.24-1.32,1.121-2.261,2.361-2.261c0.239,0,0.42,0.021,0.6,0.061v-1.66c-0.16-0.04-0.3-0.061-0.5-0.061
		C181.14,49.598,180.08,50.418,179.64,51.719z"/>
	<path d="M188.22,49.598c-2.82,0-4.541,2.301-4.541,5.222c0,2.92,1.781,4.881,4.762,4.881c1.54,0,2.601-0.32,3.221-0.601
		l-0.301-1.26c-0.66,0.28-1.42,0.5-2.681,0.5c-1.76,0-3.28-0.98-3.32-3.36h6.802c0.02-0.181,0.06-0.461,0.06-0.82
		C192.221,52.379,191.381,49.598,188.22,49.598z M185.38,53.719c0.14-1.221,0.92-2.86,2.7-2.86c1.98,0,2.461,1.74,2.44,2.86H185.38z
		"/>
</g>
</svg>
